<?xml version="1.0" encoding="utf-8"?>
<!-- Generator: Adobe Illustrator 25.4.1, SVG Export Plug-In . SVG Version: 6.00 Build 0)  -->
<svg version="1.1" id="Layer_1" xmlns="http://www.w3.org/2000/svg" xmlns:xlink="http://www.w3.org/1999/xlink" x="0px" y="0px"
	 viewBox="0 0 1375.5 245.2" style="enable-background:new 0 0 1375.5 245.2;" xml:space="preserve">
<style type="text/css">
	.st0{fill:none;stroke:#000000;stroke-miterlimit:10;}
	.st1{fill:none;stroke:#000000;stroke-width:2;stroke-miterlimit:10;}
	.st2{stroke:#000000;stroke-miterlimit:10;}
	.st3{fill:#CCCCCC;stroke:#000000;stroke-miterlimit:10;}
	.st4{fill:#999999;stroke:#000000;stroke-miterlimit:10;}
	.st5{fill:#333333;stroke:#000000;stroke-miterlimit:10;}
	.st6{fill:#666666;stroke:#000000;stroke-miterlimit:10;}
</style>
<line class="st0" x1="1368.7" y1="197.9" x2="21.5" y2="197.9"/>
<path d="M766.7-431.5c1.9,0,1.9-3,0-3S764.7-431.5,766.7-431.5L766.7-431.5z"/>
<path d="M23.6,199.4c1.9,0,1.9-3,0-3S21.7,199.4,23.6,199.4L23.6,199.4z"/>
<polyline class="st1" points="23.6,197.9 23.6,139.4 84,139.4 84,168.6 53.8,168.6 "/>
<rect x="21" y="213.9" class="st2" width="12" height="12"/>
<rect x="138" y="213.9" class="st3" width="12" height="12"/>
<rect x="108" y="213.9" class="st4" width="12" height="12"/>
<rect x="48" y="213.9" class="st5" width="12" height="12"/>
<rect x="78" y="213.9" class="st6" width="12" height="12"/>
</svg>
